<?xml version="1.0" standalone="no"?>
<!DOCTYPE svg PUBLIC "-//W3C//DTD SVG 20010904//EN"
 "http://www.w3.org/TR/2001/REC-SVG-20010904/DTD/svg10.dtd">
<svg version="1.0" xmlns="http://www.w3.org/2000/svg"
 width="1440.000000pt" height="1440.000000pt" viewBox="0 0 1440.000000 1440.000000"
 preserveAspectRatio="xMidYMid meet">
<metadata>
Created by potrace 1.14, written by Peter Selinger 2001-2017
</metadata>
<g transform="translate(0.000000,1440.000000) scale(0.100000,-0.100000)"
fill="#000000" stroke="none">
<path d="M6868 14395 c-2 -1 -56 -6 -120 -9 -64 -4 -132 -9 -150 -11 -18 -2
-68 -6 -111 -10 -43 -3 -86 -8 -95 -10 -9 -1 -46 -6 -82 -10 -36 -4 -74 -9
-85 -11 -11 -1 -40 -5 -65 -8 -93 -13 -293 -49 -445 -80 -103 -22 -182 -40
-268 -62 -56 -14 -109 -27 -117 -29 -226 -52 -780 -248 -1050 -372 -41 -19
-91 -41 -110 -50 -52 -22 -324 -159 -389 -195 -290 -160 -508 -296 -746 -465
-176 -125 -406 -305 -510 -398 -13 -11 -48 -42 -79 -69 -196 -169 -497 -470
-661 -661 -27 -32 -57 -66 -65 -75 -8 -8 -42 -49 -75 -90 -33 -41 -64 -80 -70
-86 -5 -6 -21 -26 -35 -44 -14 -18 -43 -56 -66 -84 -55 -70 -224 -305 -224
-313 0 -4 -8 -16 -18 -27 -15 -17 -138 -209 -219 -341 -164 -270 -379 -704
-495 -1000 -21 -55 -43 -109 -48 -120 -34 -76 -170 -488 -205 -625 -3 -8 -16
-60 -31 -115 -14 -55 -27 -107 -29 -115 -2 -8 -8 -35 -15 -60 -7 -25 -14 -54
-16 -65 -2 -11 -13 -67 -25 -125 -12 -58 -23 -114 -25 -125 -2 -11 -14 -85
-28 -165 -13 -80 -27 -167 -30 -195 -4 -27 -9 -61 -11 -75 -11 -72 -34 -317
-42 -450 -15 -239 -8 -885 12 -1050 2 -19 6 -66 9 -105 4 -38 8 -81 10 -95 3
-14 7 -50 10 -80 7 -66 16 -136 22 -170 2 -14 9 -56 14 -95 6 -38 12 -77 15
-85 2 -8 6 -31 9 -50 3 -19 8 -46 11 -60 3 -14 14 -72 26 -130 29 -146 92
-397 144 -575 49 -166 154 -476 175 -515 7 -14 12 -26 11 -28 -1 -1 7 -23 19
-48 11 -26 20 -50 20 -54 0 -4 10 -29 21 -56 12 -27 29 -67 39 -89 55 -126 70
-160 120 -265 134 -278 318 -607 456 -814 10 -16 24 -36 29 -44 143 -223 400
-561 600 -787 222 -252 531 -557 740 -730 26 -22 53 -45 59 -50 26 -24 219
-177 311 -246 165 -124 436 -307 575 -390 8 -4 45 -27 83 -49 37 -22 70 -40
72 -40 3 0 23 -11 44 -24 207 -131 727 -370 1096 -504 290 -105 868 -264 1050
-288 28 -3 53 -8 57 -11 4 -2 49 -11 100 -19 51 -8 105 -17 119 -19 15 -3 44
-7 65 -10 22 -3 48 -7 59 -9 11 -2 54 -7 95 -11 41 -4 83 -9 94 -11 10 -2 51
-6 90 -9 39 -4 87 -8 106 -11 228 -25 981 -25 1200 0 19 3 70 7 113 11 43 3
86 8 95 10 9 1 46 6 82 10 36 4 74 9 85 11 11 1 43 5 70 9 42 5 145 22 245 40
36 7 76 15 195 39 412 86 995 266 1283 397 34 16 65 29 67 29 3 0 44 18 91 40
47 22 88 40 91 40 17 0 466 234 573 299 19 11 42 24 50 28 68 31 481 304 638
420 75 56 316 247 338 268 6 5 29 25 52 43 23 19 52 44 65 55 164 148 224 204
357 337 85 86 187 191 227 235 75 83 79 89 153 175 25 28 58 66 73 83 64 73
311 402 399 532 119 174 238 363 238 375 0 6 3 10 8 10 4 0 12 10 18 23 6 12
43 79 82 149 138 245 300 583 394 823 21 55 43 109 48 120 9 20 48 129 95 265
66 192 167 558 210 760 21 98 64 323 71 375 3 22 7 47 9 55 1 8 6 42 10 75 5
33 9 62 10 65 1 3 5 34 9 70 4 36 10 79 12 95 2 17 6 62 9 100 3 39 8 84 10
100 27 193 27 952 0 1215 -3 25 -7 70 -10 100 -4 30 -8 78 -11 105 -2 28 -9
82 -14 120 -6 39 -12 86 -15 105 -7 62 -16 114 -25 160 -5 25 -12 61 -14 80
-3 19 -8 46 -11 60 -3 14 -10 50 -16 80 -10 56 -15 79 -23 115 -3 11 -11 49
-19 85 -8 36 -25 103 -37 150 -12 47 -24 94 -26 104 -2 10 -8 33 -13 50 -5 17
-21 72 -36 121 -29 99 -93 299 -105 330 -12 29 -23 59 -26 70 -6 21 -53 144
-102 265 -49 122 -67 163 -132 305 -39 86 -175 359 -200 400 -9 17 -31 55 -47
85 -17 30 -40 71 -51 90 -12 19 -26 44 -31 55 -5 11 -21 37 -35 58 -14 21 -26
40 -26 43 0 9 -153 243 -255 389 -56 81 -275 370 -302 400 -10 11 -40 47 -67
80 -48 60 -127 150 -221 254 -134 147 -448 452 -590 572 -22 19 -42 36 -45 39
-3 3 -30 25 -60 50 -30 25 -57 47 -60 50 -8 9 -180 143 -265 207 -150 112
-525 363 -542 363 -4 0 -14 6 -22 14 -9 7 -90 55 -181 106 -467 263 -951 470
-1440 618 -224 68 -608 163 -715 178 -22 3 -53 9 -70 14 -16 4 -66 14 -110 20
-44 7 -89 14 -99 16 -26 5 -174 26 -206 29 -109 11 -164 17 -178 20 -9 1 -62
6 -117 10 -55 4 -118 9 -140 12 -46 4 -792 12 -797 8z"/>
</g>
</svg>
